HIERARCHY
ROOT hip
{
	OFFSET 0.000000 103.560692 0.219151
	CHANNELS 6 Xposition Yposition Zposition Zrotation Xrotation Yrotation
	JOINT pelvis
	{
		OFFSET 0.000000 1.955040 1.591925
		CHANNELS 3 Zrotation Xrotation Yrotation
		JOINT lThigh
		{
			OFFSET 8.341582 -7.629402 -0.646910
			CHANNELS 3 Zrotation Xrotation Yrotation
			JOINT lShin
			{
				OFFSET 2.185763 -45.093132 -0.705710
				CHANNELS 3 Zrotation Xrotation Yrotation
				JOINT lFoot
				{
					OFFSET 0.730976 -46.379768 -2.264282
					CHANNELS 3 Zrotation Xrotation Yrotation
					JOINT lToe
					{
						OFFSET 2.797621 -4.200020 10.742415
						CHANNELS 3 Zrotation Xrotation Yrotation
						JOINT lBigToe
						{
							OFFSET -2.433708 -0.269072 1.841711
							CHANNELS 3 Zrotation Xrotation Yrotation
							End Site
							{
								OFFSET -10.527346 -33.657166 -1.340707
							}
						}
					}
				}
			}
		}
		JOINT rThigh
		{
			OFFSET -8.341582 -7.629402 -0.646910
			CHANNELS 3 Zrotation Xrotation Yrotation
			JOINT rShin
			{
				OFFSET -2.185763 -45.093132 -0.705710
				CHANNELS 3 Zrotation Xrotation Yrotation
				JOINT rFoot
				{
					OFFSET -0.730976 -46.379768 -2.264282
					CHANNELS 3 Zrotation Xrotation Yrotation
					JOINT rToe
					{
						OFFSET -2.797621 -4.200019 10.742415
						CHANNELS 3 Zrotation Xrotation Yrotation
						JOINT rBigToe
						{
							OFFSET 2.433708 -0.269072 1.841711
							CHANNELS 3 Zrotation Xrotation Yrotation
							End Site
							{
								OFFSET 0.000000 24.298409 -0.425647
							}
						}
					}
				}
			}
		}
	}
	JOINT abdomen
	{
		OFFSET 0.000000 1.841293 -3.551421
		CHANNELS 3 Zrotation Xrotation Yrotation
		JOINT abdomen2
		{
			OFFSET 0.000000 5.439911 3.419600
			CHANNELS 3 Zrotation Xrotation Yrotation
			JOINT chest
			{
				OFFSET 0.000000 14.715073 -2.918270
				CHANNELS 3 Zrotation Xrotation Yrotation
				JOINT neck
				{
					OFFSET 0.000000 26.294655 -1.248052
					CHANNELS 3 Zrotation Xrotation Yrotation
					JOINT head
					{
						OFFSET 0.000000 8.807068 1.063695
						CHANNELS 3 Zrotation Xrotation Yrotation
						JOINT rEye
						{
							OFFSET -3.030866 6.632080 7.702687
							CHANNELS 3 Zrotation Xrotation Yrotation
							End Site
							{
								OFFSET 2.969555 -11.022598 8.626689
							}
						}
						JOINT lEye
						{
							OFFSET 3.030866 6.632080 7.702687
							CHANNELS 3 Zrotation Xrotation Yrotation
							End Site
							{
								OFFSET 0.000000 -15.881760 10.104412
							}
						}
						JOINT upperJaw
						{
							OFFSET 0.000000 1.922699 2.891887
							CHANNELS 3 Zrotation Xrotation Yrotation
							End Site
							{
								OFFSET 0.000000 -19.386169 10.230839
							}
						}
						JOINT lowerJaw
						{
							OFFSET 0.000000 1.857620 2.686640
							CHANNELS 3 Zrotation Xrotation Yrotation
							JOINT tongueBase
							{
								OFFSET 0.000000 -3.019135 2.746916
								CHANNELS 3 Zrotation Xrotation Yrotation
								JOINT tongue01
								{
									OFFSET 0.000000 0.664124 0.223355
									CHANNELS 3 Zrotation Xrotation Yrotation
									JOINT tongue02
									{
										OFFSET 0.000000 0.339737 0.715627
										CHANNELS 3 Zrotation Xrotation Yrotation
										JOINT tongue03
										{
											OFFSET 0.000000 0.123444 0.730634
											CHANNELS 3 Zrotation Xrotation Yrotation
											JOINT tongue04
											{
												OFFSET 0.000000 0.017212 0.737415
												CHANNELS 3 Zrotation Xrotation Yrotation
												JOINT tongue05
												{
													OFFSET 0.000000 -0.021011 0.632440
													CHANNELS 3 Zrotation Xrotation Yrotation
													JOINT tongueTip
													{
														OFFSET 0.000000 -0.014404 0.601796
														CHANNELS 3 Zrotation Xrotation Yrotation
														End Site
														{
															OFFSET -14.139406 -2.625778 0.472826
														}
													}
												}
											}
										}
									}
								}
							}
						}
					}
				}
				JOINT rCollar
				{
					OFFSET -2.109295 21.452370 3.768136
					CHANNELS 3 Zrotation Xrotation Yrotation
					JOINT rShldr
					{
						OFFSET -11.491621 -2.568573 -4.940255
						CHANNELS 3 Zrotation Xrotation Yrotation
						JOINT rForeArm
						{
							OFFSET -28.789030 -0.213806 2.098380
							CHANNELS 3 Zrotation Xrotation Yrotation
							JOINT rHand
							{
								OFFSET -22.260895 -0.869583 10.391586
								CHANNELS 3 Zrotation Xrotation Yrotation
								JOINT rThumb1
								{
									OFFSET -0.628075 0.137405 2.362409
									CHANNELS 3 Zrotation Xrotation Yrotation
									JOINT rThumb2
									{
										OFFSET 0.085205 -0.600235 3.826079
										CHANNELS 3 Zrotation Xrotation Yrotation
										JOINT rThumb3
										{
											OFFSET -1.255478 -0.879211 2.439162
											CHANNELS 3 Zrotation Xrotation Yrotation
											End Site
											{
												OFFSET -2.963715 0.538574 4.059553
											}
										}
									}
								}
								JOINT rCarpal1
								{
									OFFSET -0.855530 1.026047 1.621985
									CHANNELS 3 Zrotation Xrotation Yrotation
									JOINT rIndex1
									{
										OFFSET -3.951324 0.390884 3.873290
										CHANNELS 3 Zrotation Xrotation Yrotation
										JOINT rIndex2
										{
											OFFSET -3.071884 -1.259598 2.506104
											CHANNELS 3 Zrotation Xrotation Yrotation
											JOINT rIndex3
											{
												OFFSET -1.394112 -1.446640 1.203302
												CHANNELS 3 Zrotation Xrotation Yrotation
												End Site
												{
													OFFSET -3.392448 -1.258026 0.533405
												}
											}
										}
									}
									JOINT rMid1
									{
										OFFSET -5.422974 0.107910 2.002650
										CHANNELS 3 Zrotation Xrotation Yrotation
										JOINT rMid2
										{
											OFFSET -3.599533 -1.323776 2.090647
											CHANNELS 3 Zrotation Xrotation Yrotation
											JOINT rMid3
											{
												OFFSET -1.360191 -1.598495 1.068055
												CHANNELS 3 Zrotation Xrotation Yrotation
												End Site
												{
													OFFSET -4.087769 -0.460876 0.069540
												}
											}
										}
									}
								}
								JOINT rCarpal2
								{
									OFFSET -1.942749 0.556229 -0.337217
									CHANNELS 3 Zrotation Xrotation Yrotation
									JOINT rRing1
									{
										OFFSET -4.762787 -0.121170 2.349089
										CHANNELS 3 Zrotation Xrotation Yrotation
										JOINT rRing2
										{
											OFFSET -3.380348 -1.337097 1.356700
											CHANNELS 3 Zrotation Xrotation Yrotation
											JOINT rRing3
											{
												OFFSET -1.430290 -1.499649 0.914224
												CHANNELS 3 Zrotation Xrotation Yrotation
												End Site
												{
													OFFSET -1.783272 -2.215851 -0.391895
												}
											}
										}
									}
									JOINT rPinky1
									{
										OFFSET -5.232559 -1.313721 0.336493
										CHANNELS 3 Zrotation Xrotation Yrotation
										JOINT rPinky2
										{
											OFFSET -2.217606 -1.389603 0.800693
											CHANNELS 3 Zrotation Xrotation Yrotation
											JOINT rPinky3
											{
												OFFSET -0.886887 -1.462280 0.774199
												CHANNELS 3 Zrotation Xrotation Yrotation
												End Site
												{
													OFFSET 14.139406 -2.625778 0.472826
												}
											}
										}
									}
								}
							}
						}
					}
				}
				JOINT lCollar
				{
					OFFSET 2.109295 21.452370 3.768136
					CHANNELS 3 Zrotation Xrotation Yrotation
					JOINT lShldr
					{
						OFFSET 11.491621 -2.568573 -4.940255
						CHANNELS 3 Zrotation Xrotation Yrotation
						JOINT lForeArm
						{
							OFFSET 28.789030 -0.213806 2.098380
							CHANNELS 3 Zrotation Xrotation Yrotation
							JOINT lHand
							{
								OFFSET 22.260895 -0.869583 10.391586
								CHANNELS 3 Zrotation Xrotation Yrotation
								JOINT lThumb1
								{
									OFFSET 0.628075 0.137405 2.362409
									CHANNELS 3 Zrotation Xrotation Yrotation
									JOINT lThumb2
									{
										OFFSET -0.085205 -0.600235 3.826079
										CHANNELS 3 Zrotation Xrotation Yrotation
										JOINT lThumb3
										{
											OFFSET 1.255478 -0.879211 2.439162
											CHANNELS 3 Zrotation Xrotation Yrotation
											End Site
											{
												OFFSET 2.963715 0.538574 4.059553
											}
										}
									}
								}
								JOINT lCarpal1
								{
									OFFSET 0.855530 1.026047 1.621985
									CHANNELS 3 Zrotation Xrotation Yrotation
									JOINT lIndex1
									{
										OFFSET 3.951324 0.390884 3.873290
										CHANNELS 3 Zrotation Xrotation Yrotation
										JOINT lIndex2
										{
											OFFSET 3.071884 -1.259598 2.506104
											CHANNELS 3 Zrotation Xrotation Yrotation
											JOINT lIndex3
											{
												OFFSET 1.394112 -1.446640 1.203302
												CHANNELS 3 Zrotation Xrotation Yrotation
												End Site
												{
													OFFSET 3.392448 -1.258026 0.533405
												}
											}
										}
									}
									JOINT lMid1
									{
										OFFSET 5.422974 0.107910 2.002650
										CHANNELS 3 Zrotation Xrotation Yrotation
										JOINT lMid2
										{
											OFFSET 3.599533 -1.323776 2.090647
											CHANNELS 3 Zrotation Xrotation Yrotation
											JOINT lMid3
											{
												OFFSET 1.360191 -1.598495 1.068055
												CHANNELS 3 Zrotation Xrotation Yrotation
												End Site
												{
													OFFSET 4.087769 -0.460876 0.069540
												}
											}
										}
									}
								}
								JOINT lCarpal2
								{
									OFFSET 1.942749 0.556229 -0.337217
									CHANNELS 3 Zrotation Xrotation Yrotation
									JOINT lRing1
									{
										OFFSET 4.762787 -0.121170 2.349089
										CHANNELS 3 Zrotation Xrotation Yrotation
										JOINT lRing2
										{
											OFFSET 3.380348 -1.337097 1.356700
											CHANNELS 3 Zrotation Xrotation Yrotation
											JOINT lRing3
											{
												OFFSET 1.430290 -1.499649 0.914224
												CHANNELS 3 Zrotation Xrotation Yrotation
												End Site
												{
													OFFSET 1.783272 -2.215851 -0.391895
												}
											}
										}
									}
									JOINT lPinky1
									{
										OFFSET 5.232559 -1.313721 0.336493
										CHANNELS 3 Zrotation Xrotation Yrotation
										JOINT lPinky2
										{
											OFFSET 2.217606 -1.389603 0.800693
											CHANNELS 3 Zrotation Xrotation Yrotation
											JOINT lPinky3
											{
												OFFSET 0.886887 -1.462280 0.774199
												CHANNELS 3 Zrotation Xrotation Yrotation
												End Site
												{
													OFFSET -10.295957 -17.050110 17.461308
												}
											}
										}
									}
								}
							}
						}
					}
				}
				JOINT rPectoral
				{
					OFFSET -6.358840 6.360771 6.369920
					CHANNELS 3 Zrotation Xrotation Yrotation
					End Site
					{
						OFFSET 10.295957 -17.050110 17.461308
					}
				}
				JOINT lPectoral
				{
					OFFSET 6.358840 6.360771 6.369920
					CHANNELS 3 Zrotation Xrotation Yrotation
					End Site
					{
						OFFSET 10.295957 -17.050110 17.461308
					}
				}
			}
		}
	}
}
MOTION
Frames:	4
Frame Time:	0.0333333
0.000000 0.000000 0.000000 0.000000 0.000000 0.000000 0.000000 0.000000 0.000000 0.000000 0.000000 0.000000 0.000000 0.000000 0.000000 0.000000 0.000000 0.000000 0.000000 0.000000 0.000000 0.000000 0.000000 0.000000 0.000000 0.000000 0.000000 0.000000 0.000000 0.000000 0.000000 0.000000 0.000000 0.000000 0.000000 0.000000 0.000000 0.000000 0.000000 0.000000 0.000000 0.000000 0.000000 0.000000 0.000000 0.000000 0.000000 0.000000 0.000000 0.000000 0.000000 0.000000 0.000000 0.000000 0.000000 0.000000 0.000000 0.000000 0.000000 0.000000 0.000000 0.000000 0.000000 0.000000 0.000000 0.000000 0.000000 0.000000 0.000000 0.000000 0.000000 0.000000 0.000000 0.000000 0.000000 0.000000 0.000000 0.000000 0.000000 0.000000 0.000000 0.000000 0.000000 0.000000 0.000000 0.000000 0.000000 0.000000 0.000000 0.000000 0.000000 0.000000 0.000000 0.000000 0.000000 0.000000 0.000000 0.000000 0.000000 0.000000 0.000000 0.000000 0.000000 0.000000 0.000000 0.000000 0.000000 0.000000 0.000000 0.000000 0.000000 0.000000 0.000000 0.000000 0.000000 0.000000 0.000000 0.000000 0.000000 0.000000 0.000000 0.000000 0.000000 0.000000 0.000000 0.000000 0.000000 0.000000 0.000000 0.000000 0.000000 0.000000 0.000000 0.000000 0.000000 0.000000 0.000000 0.000000 0.000000 0.000000 0.000000 0.000000 0.000000 0.000000 0.000000 0.000000 0.000000 0.000000 0.000000 0.000000 0.000000 0.000000 0.000000 0.000000 0.000000 0.000000 0.000000 0.000000 0.000000 0.000000 0.000000 0.000000 0.000000 0.000000 0.000000 0.000000 0.000000 0.000000 0.000000 0.000000 0.000000 0.000000 0.000000 0.000000 0.000000 0.000000 0.000000 0.000000 0.000000 0.000000 0.000000 0.000000 0.000000 0.000000 0.000000 0.000000 0.000000 0.000000 0.000000 0.000000 0.000000 0.000000 0.000000 0.000000 0.000000 0.000000 0.000000 0.000000 0.000000 0.000000 0.000000 0.000000 0.000000 0.000000 0.000000 0.000000 0.000000 0.000000 0.000000 0.000000 0.000000 0.000000 0.000000 0.000000 0.000000 0.000000 0.000000 0.000000 0.000000 
0.000000 0.988563 0.000000 0.963235 3.393340 -1.792534 0.000000 0.000000 0.000000 2.967670 -5.175488 -0.361138 -1.330894 3.264197 -7.484421 2.783853 -17.656202 -8.159983 3.991153 -8.733521 1.889978 0.000000 0.000000 0.000000 -2.341600 -7.545996 4.638078 2.619155 7.682742 11.456458 -6.188561 -19.691874 -8.712214 -4.506674 -8.011057 -1.728149 0.000000 0.000000 0.000000 -1.739818 -2.254973 -3.448787 0.000000 0.000000 0.000000 1.286296 6.260974 -2.639704 4.538545 -17.368904 1.669275 -3.770800 12.035876 4.176224 0.000000 0.000000 0.000000 0.000000 0.000000 0.000000 0.000000 0.000000 0.000000 0.000000 0.000000 0.000000 0.000000 0.000000 0.000000 0.000000 0.000000 0.000000 0.000000 0.000000 0.000000 0.000000 0.000000 0.000000 0.000000 0.000000 0.000000 0.000000 0.000000 0.000000 0.000000 0.000000 0.000000 17.969503 -0.082396 -3.837565 57.723297 24.763693 2.182965 0.451563 -12.991392 -8.537591 2.243217 1.780507 2.891243 -20.278101 15.997745 -11.245070 -5.406475 -14.233100 9.902917 -16.386185 20.674324 16.306753 0.000000 0.000000 0.000000 -10.348044 -8.551854 -17.064831 -2.318522 0.148480 -1.337519 0.000000 0.000000 0.000000 -8.610146 -3.384557 -7.194680 -0.594737 3.049747 -3.815813 0.475720 4.597863 -2.176553 0.000000 0.000000 0.000000 -9.791046 -8.822816 -0.906533 3.867550 4.731598 -6.993989 1.274195 8.358146 -3.947741 -21.910795 -24.665661 -14.976031 1.013203 5.939926 -6.999176 24.178719 21.174963 -1.932961 -12.967263 0.065659 3.174918 -65.701607 20.728151 -2.960093 3.113644 -18.721338 19.256958 -10.737016 6.544425 -4.461303 15.319375 21.766415 8.847219 9.901570 -11.655849 7.277289 18.875000 24.458431 -9.603107 0.000000 0.000000 0.000000 12.069197 -8.757881 19.638683 3.052178 -1.966338 -0.198111 7.677945 -5.970286 1.310491 9.598503 -3.815169 7.608287 1.670282 2.698815 3.957673 -3.520398 6.272585 1.442464 0.000000 0.000000 0.000000 14.823339 -9.916796 2.952401 -14.898664 10.503114 6.875374 -11.615885 10.918810 0.447641 21.914356 -24.326681 15.463378 -1.841164 7.767498 6.101123 -27.804531 15.107229 -2.211282 0.150756 -0.007537 -0.442678 -0.115598 -0.005675 0.339429 
0.017149 0.982083 0.014586 0.897046 3.420395 -1.764131 0.000000 0.000000 0.000000 3.026151 -5.397919 -0.411981 -1.345442 3.680135 -7.423801 2.838453 -17.867771 -8.173730 3.991153 -8.733521 1.889978 0.000000 0.000000 0.000000 -2.290344 -7.519573 4.615987 2.621995 7.599922 11.493059 -6.201168 -19.656069 -8.746193 -4.506674 -8.011057 -1.728149 0.000000 0.000000 0.000000 -1.485000 -2.163984 -3.354297 0.000000 0.000000 0.000000 1.058016 6.110152 -2.518330 4.293639 -17.221317 1.649527 -3.535354 12.000131 4.037436 0.000000 0.000000 0.000000 0.000000 0.000000 0.000000 0.000000 0.000000 0.000000 0.000000 0.000000 0.000000 0.000000 0.000000 0.000000 0.000000 0.000000 0.000000 0.000000 0.000000 0.000000 0.000000 0.000000 0.000000 0.000000 0.000000 0.000000 0.000000 0.000000 0.000000 0.000000 0.000000 0.000000 17.555967 -0.098266 -3.951899 56.851559 25.962639 2.441370 1.224571 -11.760659 -6.442677 1.527485 0.975703 4.441648 -20.279388 14.975128 -10.219071 -5.262262 -14.284412 10.407239 -15.768568 19.568140 16.692362 0.000000 0.000000 0.000000 -10.986284 -8.830073 -17.102819 -2.473636 0.006664 -1.345751 0.000000 0.000000 0.000000 -9.097484 -3.606494 -7.287975 -0.746021 2.949379 -3.822914 0.410408 4.548135 -2.182576 0.000000 0.000000 0.000000 -9.791046 -8.822816 -0.906533 3.735754 4.677174 -6.993750 1.086457 8.270456 -3.955905 -22.740068 -24.601555 -15.309574 1.075909 5.963738 -6.996265 23.697124 20.894709 -1.955643 -12.656376 0.042184 3.350399 -64.700531 21.597542 -3.059897 1.637799 -17.371817 16.889318 -9.947537 5.940685 -6.217964 15.628870 20.620014 7.834974 9.620208 -11.863347 6.133414 18.301319 23.077509 -10.237667 0.000000 0.000000 0.000000 12.676905 -9.038623 19.606960 3.052178 -1.966338 -0.198111 7.415171 -5.731774 1.276220 10.087515 -4.033618 7.705303 1.821949 2.599029 3.965946 -3.455614 6.221949 1.446594 0.000000 0.000000 0.000000 15.324216 -10.009033 3.223775 -14.279870 10.261003 6.831684 -11.432272 10.817279 0.436666 22.818016 -24.259439 15.832314 -1.826652 7.737265 6.141922 -27.425758 14.896344 -2.216581 0.153156 -0.007666 -0.449726 -0.120586 -0.005935 0.354077 
0.035354 0.975170 0.030038 0.828864 3.448161 -1.734862 0.000000 0.000000 0.000000 3.086056 -5.614903 -0.464646 -1.360267 4.083395 -7.361805 2.892823 -18.072458 -8.187654 3.991153 -8.733521 1.889978 0.000000 0.000000 0.000000 -2.237520 -7.491950 4.593297 2.624878 7.513525 11.530999 -6.214223 -19.618570 -8.780618 -4.506674 -8.011057 -1.728149 0.000000 0.000000 0.000000 -1.222651 -2.070025 -3.257824 0.000000 0.000000 0.000000 0.823066 5.954751 -2.394681 4.041978 -17.068634 1.630928 -3.293310 11.963241 3.895154 0.000000 0.000000 0.000000 0.000000 0.000000 0.000000 0.000000 0.000000 0.000000 0.000000 0.000000 0.000000 0.000000 0.000000 0.000000 0.000000 0.000000 0.000000 0.000000 0.000000 0.000000 0.000000 0.000000 0.000000 0.000000 0.000000 0.000000 0.000000 0.000000 0.000000 0.000000 0.000000 0.000000 17.129700 -0.114462 -4.069782 55.877998 27.167877 2.643220 1.916737 -10.457282 -4.171606 0.812025 0.158793 6.035312 -20.246609 13.923264 -9.166655 -5.113196 -14.336277 10.926867 -15.107059 18.445263 17.105190 0.000000 0.000000 0.000000 -11.644438 -9.115973 -17.147682 -2.633416 -0.139423 -1.354655 0.000000 0.000000 0.000000 -9.599642 -3.834550 -7.385872 -0.901881 2.846074 -3.830477 0.343098 4.496863 -2.188788 0.000000 0.000000 0.000000 -9.791046 -8.822816 -0.906533 3.600113 4.621232 -6.993766 0.893063 8.180079 -3.964724 -23.592918 -24.534487 -15.653884 1.140486 5.988200 -6.993570 23.202251 20.605625 -1.981876 -12.335921 0.017953 3.530859 -63.585060 22.461382 -3.080022 0.241120 -15.894436 14.301950 -9.148671 5.324312 -8.020688 15.902267 19.430565 6.807224 9.325931 -12.071270 4.953461 17.670435 21.678997 -10.904164 0.000000 0.000000 0.000000 13.304521 -9.326982 19.579607 3.052178 -1.966338 -0.198111 7.144878 -5.485905 1.241967 10.591471 -4.257976 7.807104 1.978072 2.496270 3.974743 -3.388956 6.169748 1.451058 0.000000 0.000000 0.000000 15.840139 -10.103365 3.504322 -13.643425 10.011291 6.789573 -11.243127 10.712794 0.425971 23.748217 -24.189255 16.213442 -1.811570 7.706060 6.183944 -27.036064 14.679585 -2.220356 0.155664 -0.007802 -0.457093 -0.125734 -0.006205 0.369194 
